<svg width="250" height="248" viewBox="0 0 250 248" fill="none" xmlns="http://www.w3.org/2000/svg">
<path d="M11.042 233.957H59.1734C61.7215 233.957 63.9865 232.553 65.4022 230.587L197.905 14.6047C199.604 11.7961 197.622 8.42578 194.224 8.42578H148.641C146.376 8.42578 144.394 9.54922 143.262 11.5152L8.77703 230.025C7.92765 231.71 9.06015 233.957 11.042 233.957Z" fill="white"/>
<path d="M176.953 230.586L239.524 130.881C241.506 127.791 239.241 123.859 235.56 123.859H190.26C188.562 123.859 186.863 124.702 186.013 126.106L121.744 228.059C120.045 230.586 122.027 233.957 125.141 233.957H171.291C173.556 233.957 175.821 232.833 176.953 230.586Z" fill="white"/>
</svg>
