<svg width="250" height="250" viewBox="0 0 250 250" fill="none" xmlns="http://www.w3.org/2000/svg">
<path d="M11.042 235.844H59.1734C61.7215 235.844 63.9865 234.428 65.4022 232.446L197.905 14.7224C199.604 11.8912 197.622 8.49365 194.224 8.49365H148.641C146.376 8.49365 144.394 9.62615 143.262 11.608L8.77703 231.88C7.92765 233.579 9.06015 235.844 11.042 235.844Z" fill="#3EA8FF"/>
<path d="M176.953 232.446L239.524 131.937C241.506 128.822 239.241 124.858 235.56 124.858H190.26C188.562 124.858 186.863 125.708 186.013 127.123L121.744 229.898C120.045 232.446 122.027 235.844 125.141 235.844H171.291C173.556 235.844 175.821 234.711 176.953 232.446Z" fill="#3EA8FF"/>
</svg>
