<svg width="48" height="48" viewBox="0 0 48 48" fill="none" xmlns="http://www.w3.org/2000/svg">
<rect width="48" height="48" rx="6" fill="white"/>
<path fill-rule="evenodd" clip-rule="evenodd" d="M16.3519 40.5624L16.3349 40.5538C13.282 39.0064 11.1407 36.5148 9.72854 33.6905C9.72854 33.6905 5.5 26.1028 6.75723 27.7478C8.01445 29.3928 11.2249 25.2146 11.2249 25.2146C10.386 23.4513 10.0095 21.5466 10.0095 19.64C10.0095 17.2644 10.59 14.8668 11.9581 12.6969L11.9685 12.6803L11.9791 12.6637C13.3107 10.5774 15.1449 9.00606 17.2866 7.95544L17.3096 7.94411L17.3328 7.93295C19.5319 6.87412 21.867 6.45996 24.1495 6.45996C27.0767 6.45996 30.0573 7.11251 32.7144 8.81854C34.7606 10.1146 36.5776 11.814 37.903 13.9971C37.903 13.9971 42.3133 20.7119 41.1566 19.3559C40 18 37.1092 22.4693 37.1092 22.4693C38.3593 24.5138 38.9495 26.8278 38.9495 29.21C38.9495 33.0558 37.4845 36.7809 34.1252 39.3724L34.1194 39.3769L34.1136 39.3813C31.1783 41.636 27.7022 42.42 24.3595 42.42C21.5837 42.42 18.8825 41.8277 16.369 40.571L16.3519 40.5624ZM16.0267 30.6337C16.1951 30.9647 16.3739 31.2773 16.5632 31.5717C17.2812 32.6884 18.1493 33.5411 19.1674 34.13C19.1835 34.1392 19.1996 34.1485 19.2157 34.1576C19.3091 34.2106 19.4037 34.2614 19.4995 34.31C20.2998 34.7101 21.141 35.002 22.0231 35.1858C22.7724 35.3419 23.5512 35.42 24.3595 35.42C24.3997 35.42 24.4397 35.4198 24.4795 35.4195C26.628 35.4018 28.3713 34.9068 29.7094 33.9346C29.7113 33.9333 29.7132 33.9319 29.7152 33.9305C29.7604 33.8975 29.8052 33.864 29.8495 33.83C31.2355 32.7608 31.9354 31.2408 31.9493 29.27C31.9495 29.25 31.9495 29.23 31.9495 29.21C31.9495 28.3234 31.7946 27.5187 31.4849 26.7957C31.3586 26.501 31.2066 26.2199 31.0288 25.9524C31.0046 25.916 30.98 25.8799 30.9548 25.844C30.7796 25.5938 30.5811 25.3557 30.3595 25.13C29.7409 24.4996 28.894 23.9612 27.8188 23.5149C27.7858 23.5011 27.7525 23.4875 27.7191 23.474C27.193 23.2611 26.6138 23.0697 25.9813 22.8997C25.7339 22.8333 25.4785 22.7701 25.2149 22.7102C25.1998 22.7068 25.1847 22.7034 25.1695 22.7C25.1651 22.6989 25.1606 22.6979 25.1561 22.6968C25.1171 22.6876 25.0784 22.6784 25.04 22.6692C24.7122 22.5906 24.4053 22.5114 24.1195 22.4316C24.1105 22.4291 24.1015 22.4266 24.0926 22.4241C24.0735 22.4187 24.0545 22.4134 24.0356 22.408C24.0084 22.4003 23.9814 22.3926 23.9546 22.3849C23.9327 22.3785 23.9109 22.3722 23.8892 22.3659C23.7591 22.3279 23.6337 22.2897 23.513 22.2514C23.4943 22.2455 23.4757 22.2395 23.4573 22.2336C23.2786 22.1761 23.1105 22.1184 22.9531 22.0603C22.6397 21.9447 22.3686 21.8279 22.1395 21.71C21.6777 21.4646 21.3305 21.2141 21.0978 20.9584C21.0889 20.9486 21.0801 20.9387 21.0715 20.9289C20.9937 20.8399 20.9297 20.7502 20.8795 20.66C20.7581 20.4036 20.6776 20.1427 20.6381 19.8772C20.6264 19.7985 20.6183 19.7194 20.6138 19.64C20.6109 19.5901 20.6095 19.5401 20.6095 19.49C20.6095 19.0445 20.6879 18.6554 20.8447 18.3226C20.8475 18.3166 20.8504 18.3107 20.8533 18.3047C21.0132 17.9732 21.252 17.6983 21.5695 17.48C21.6583 17.4181 21.7505 17.3604 21.8462 17.3068C21.8535 17.3027 21.8608 17.2987 21.8681 17.2947C22.4796 16.9582 23.2301 16.79 24.1195 16.79C24.1295 16.79 24.1395 16.79 24.1495 16.79C24.3262 16.7907 24.4975 16.7975 24.6636 16.8103C24.6889 16.8123 24.7141 16.8144 24.7391 16.8166C25.357 16.8719 25.9005 17.013 26.3695 17.24C26.3782 17.2439 26.3868 17.2478 26.3954 17.2517C26.4123 17.2594 26.4292 17.2673 26.446 17.2751C26.5401 17.3192 26.6323 17.3654 26.7226 17.4138C26.8438 17.4786 26.9615 17.5472 27.0759 17.6196C27.0865 17.6264 27.0971 17.6331 27.1077 17.6399C27.1285 17.6533 27.1491 17.6668 27.1697 17.6804C27.1911 17.6946 27.2123 17.7089 27.2335 17.7233C27.5058 17.9094 27.7578 18.1182 27.9895 18.35C28.2712 18.6193 28.5303 18.8962 28.7669 19.1806C28.8342 19.2614 28.8996 19.3428 28.9632 19.4249C29.0414 19.5256 29.1168 19.6273 29.1895 19.73L31.9195 17.63C31.6293 17.152 31.2827 16.7013 30.8795 16.278C30.7481 16.1399 30.6106 16.0047 30.467 15.8724C30.448 15.8549 30.4288 15.8374 30.4096 15.8199C29.9764 15.4274 29.4897 15.0607 28.9495 14.72C28.6091 14.5 28.248 14.3088 27.8664 14.1464C27.8385 14.1346 27.8106 14.1228 27.7825 14.1113C27.1513 13.8517 26.4647 13.6697 25.7227 13.5653C25.2234 13.4951 24.699 13.46 24.1495 13.46C24.1395 13.46 24.1295 13.46 24.1195 13.46C22.692 13.4636 21.442 13.7236 20.3695 14.24C20.1096 14.3675 19.8634 14.5077 19.6311 14.6605C19.625 14.6645 19.6189 14.6685 19.6128 14.6725C18.9063 15.1407 18.3285 15.7266 17.8795 16.43C17.3234 17.3121 17.0339 18.3321 17.011 19.49C17.01 19.5397 17.0095 19.5897 17.0095 19.64C17.0095 20.4071 17.1237 21.1073 17.352 21.7405C17.4129 21.9094 17.4819 22.0735 17.5591 22.2328C17.5937 22.3043 17.6299 22.3748 17.6677 22.4443C17.8643 22.8054 18.1049 23.1406 18.3895 23.45C18.919 24.0133 19.6072 24.4909 20.454 24.8828C20.4677 24.8892 20.4814 24.8955 20.4952 24.9018C21.1419 25.1972 21.88 25.4433 22.7095 25.64C22.8943 25.6805 23.0737 25.7211 23.2476 25.7617C23.4698 25.8135 23.6831 25.8654 23.8875 25.9172C24.0585 25.9606 24.2233 26.004 24.3819 26.0474C24.3928 26.0503 24.4036 26.0533 24.4144 26.0563C24.4361 26.0623 24.4578 26.0682 24.4793 26.0742C24.5135 26.0837 24.5475 26.0933 24.5811 26.1028C24.8284 26.1728 25.0595 26.2429 25.2743 26.3129C25.6904 26.4486 26.0455 26.5843 26.3395 26.72C27.0259 27.0117 27.5062 27.3255 27.7804 27.6614C27.8257 27.717 27.8654 27.7732 27.8995 27.83C28.1502 28.2156 28.28 28.6756 28.289 29.21C28.2893 29.2245 28.2894 29.2391 28.2895 29.2537C28.2895 29.2591 28.2895 29.2645 28.2895 29.27C28.2895 29.9832 28.099 30.5782 27.718 31.055C27.7165 31.0569 27.7149 31.0589 27.7133 31.0608C27.6254 31.1701 27.5275 31.2731 27.4195 31.37C26.8595 31.87 25.8795 32.12 24.4795 32.12C24.4393 32.12 24.3993 32.1197 24.3595 32.1193C24.2543 32.118 24.1506 32.1152 24.0484 32.1107C23.9838 32.1079 23.9197 32.1044 23.8563 32.1003C23.2133 32.0585 22.6347 31.9501 22.1203 31.7749C21.8749 31.6913 21.6441 31.5925 21.4279 31.4785C21.3973 31.4624 21.3669 31.4459 21.3368 31.4291C21.2521 31.3818 21.1696 31.3321 21.0895 31.28C21.0761 31.2709 21.0626 31.2617 21.0492 31.2525C21.044 31.249 21.0388 31.2454 21.0336 31.2418C20.2408 30.6951 19.5599 29.9676 18.991 29.0592C18.9602 29.01 18.9297 28.9602 18.8995 28.91L15.9895 30.56C16.0019 30.5846 16.0143 30.6092 16.0267 30.6337Z" fill="#111827"/>
</svg>
